<?xml version="1.0" encoding="UTF-8" standalone="no"?>
<svg
   xmlns:dc="http://purl.org/dc/elements/1.1/"
   xmlns:cc="http://creativecommons.org/ns#"
   xmlns:rdf="http://www.w3.org/1999/02/22-rdf-syntax-ns#"
   xmlns:svg="http://www.w3.org/2000/svg"
   xmlns="http://www.w3.org/2000/svg"
   xmlns:sodipodi="http://sodipodi.sourceforge.net/DTD/sodipodi-0.dtd"
   xmlns:inkscape="http://www.inkscape.org/namespaces/inkscape"
   width="1841.4222"
   height="593.0694"
   viewBox="10 6 1841.4222 593.06941"
   version="1.1"
   id="svg10"
   sodipodi:docname="suunto-logo.4d82cce.svg"
   inkscape:version="0.92.4 (5da689c313, 2019-01-14)">
  <metadata
     id="metadata16">
    <rdf:RDF>
      <cc:Work
         rdf:about="">
        <dc:format>image/svg+xml</dc:format>
        <dc:type
           rdf:resource="http://purl.org/dc/dcmitype/StillImage" />
        <dc:title></dc:title>
      </cc:Work>
    </rdf:RDF>
  </metadata>
  <defs
     id="defs14" />
  <sodipodi:namedview
     pagecolor="#ffffff"
     bordercolor="#666666"
     borderopacity="1"
     objecttolerance="10"
     gridtolerance="10"
     guidetolerance="10"
     inkscape:pageopacity="0"
     inkscape:pageshadow="2"
     inkscape:window-width="1920"
     inkscape:window-height="1001"
     id="namedview12"
     showgrid="false"
     fit-margin-top="0"
     fit-margin-left="0"
     fit-margin-right="0"
     fit-margin-bottom="0"
     inkscape:zoom="0.25"
     inkscape:cx="1392.9741"
     inkscape:cy="404.4558"
     inkscape:window-x="-9"
     inkscape:window-y="-9"
     inkscape:window-maximized="1"
     inkscape:current-layer="svg10" />
  <path
     style="fill:#e1001a;fill-rule:evenodd;stroke-width:25.26152802"
     inkscape:connector-curvature="0"
     id="path4"
     d="M 936.69301,6 837.8194,143.4227 h 198.7577 z" />
  <path
     style="fill:#000000;fill-rule:evenodd;stroke-width:25.26152802"
     inkscape:connector-curvature="0"
     id="path6"
     d="m 1846.0322,403.11119 c -9.3973,-35.46718 -31.1728,-62.34545 -58.8089,-80.50849 a 166.52398,166.52398 0 0 0 -95.9938,-26.82774 c -34.9114,0.93468 -71.3133,12.2771 -98.722,32.83999 -27.3835,20.58814 -45.8244,50.39674 -53.9334,83.43881 -8.1847,33.04208 -6.0627,69.26711 7.5785,99.70725 13.6917,30.41488 38.8522,55.07012 65.6294,69.21658 26.7772,14.14645 55.2217,17.80938 80.8369,18.03673 25.5899,0.25262 48.3758,-2.9556 74.0163,-15.61162 25.7162,-12.63077 54.3628,-34.70934 70.1512,-67.77668 15.7885,-33.04207 18.6936,-77.04765 9.2458,-112.51483 m -60.0214,79.22014 c -5.7597,19.19876 -16.4705,35.94715 -33.0926,47.9969 -16.6726,12.07501 -39.307,19.45137 -60.2993,19.8303 -20.9671,0.45468 -40.4184,-6.06277 -55.9795,-17.63255 a 92.457184,92.457184 0 0 1 -33.2947,-48.50213 c -6.0628,-20.31026 -6.3659,-44.40976 -2.2736,-65.57892 4.1177,-21.14389 12.6308,-39.40798 28.6719,-53.12499 16.041,-13.69174 39.5848,-22.86168 62.6486,-23.11429 a 95.943277,95.943277 0 0 1 62.5728,22.78589 c 16.7736,14.39908 27.6361,34.48199 32.6631,55.39853 5.0523,20.91654 4.1934,42.69198 -1.5915,61.94126 M 909.33478,305.32382 a 4.3955055,4.3955055 0 0 0 -2.67772,-1.51569 h -51.9377 a 11.241378,11.241378 0 0 0 -3.33452,1.51569 5.6838432,5.6838432 0 0 0 -1.21256,2.02092 15.914762,15.914762 0 0 0 -0.6315,4.04185 v 176.65384 c 0,0.42942 -0.63157,6.16382 -1.08624,10.40775 -0.42942,4.1429 -0.7073,6.82061 -1.38937,10.10462 a 40.468963,40.468963 0 0 1 -4.44604,11.72134 44.611855,44.611855 0 0 1 -9.54886,10.71089 68.711349,68.711349 0 0 1 -10.50878,7.32584 c -4.47129,2.52616 -9.7257,5.05231 -15.40955,6.82061 -5.88593,1.8441 -12.2771,2.77877 -17.93568,3.284 -5.10283,0.37896 -9.59938,0.45469 -14.60116,0.15154 -5.30492,-0.25261 -11.21612,-1.01046 -16.57156,-2.22301 a 64.492676,64.492676 0 0 1 -27.28245,-13.54018 45.799145,45.799145 0 0 1 -11.74661,-17.60729 c -1.69251,-4.49655 -3.68817,-11.16559 -3.68817,-15.15691 V 311.41185 a 15.5611,15.5611 0 0 0 -0.55578,-3.66293 4.5470747,4.5470747 0 0 0 -0.83363,-1.7683 4.4460284,4.4460284 0 0 0 -1.16203,-1.01046 3.7134443,3.7134443 0 0 0 -1.51569,-0.50523 h -51.96296 a 13.489654,13.489654 0 0 0 -1.89461,0.65677 5.0523052,5.0523052 0 0 0 -1.43991,0.83363 5.5575357,5.5575357 0 0 0 -1.26308,2.34932 14.474854,14.474854 0 0 0 -0.55577,3.78923 v 192.54335 c 0,4.79969 0.37888,9.34676 1.18729,14.22224 0.90943,5.30492 2.32406,10.98876 4.04184,16.09159 1.64202,4.85021 3.53662,9.16993 6.31538,13.51491 3.08191,4.7997 7.22482,9.59939 11.77188,14.07067 a 108.32142,108.32142 0 0 0 33.06733,22.1291 c 6.06277,2.67772 12.27712,4.97652 18.94615,6.87113 7.07323,2.02093 14.60116,3.63767 22.10383,4.87548 7.27532,1.26307 14.50012,2.12197 21.21969,2.27354 6.39116,0.20207 12.37814,-0.25262 18.99666,-1.11151 7.17427,-0.85889 15.20744,-2.17249 21.82596,-3.43557 a 175.44129,175.44129 0 0 0 33.34522,-9.47307 118.47656,118.47656 0 0 0 20.71445,-10.35723 c 6.23959,-4.04184 11.69608,-8.84153 16.92522,-14.07066 5.0523,-5.10283 9.90252,-10.60985 13.48966,-15.81372 3.13242,-4.54708 5.30492,-8.79101 6.89639,-14.07067 1.76831,-5.81015 2.77877,-12.95916 3.46083,-18.94614 a 782.60206,782.60206 0 0 0 2.32406,-32.00636 V 310.78031 c 0,-0.75784 -0.25261,-2.52616 -0.58104,-3.66292 a 4.7996899,4.7996899 0 0 0 -0.83363,-1.76831 m 604.35678,-1.642 H 1271.964 c -1.5157,0 -3.9156,-0.0757 -5.507,1.26308 a 7.8310729,7.8310729 0 0 0 -1.8947,3.18295 v 35.99768 c 0,1.7683 0.4042,3.78922 1.6926,4.7239 1.263,0.93468 3.4608,0.88416 5.7343,0.88416 h 79.1191 c 2.9556,0 7.0733,0.40415 9.271,3.33451 a 17.076792,17.076792 0 0 1 2.3241,7.65425 v 225.25702 c 0,1.41465 -0.3284,3.91554 1.0104,5.00178 1.0863,0.83363 3.3598,0.68204 3.3851,0.68204 h 49.841 c 1.5157,0 3.284,-0.20207 4.345,-1.76831 a 12.807593,12.807593 0 0 0 1.3388,-4.79966 V 358.95404 c 0,-0.25262 0.1768,-4.74917 2.2736,-7.12375 2.5261,-2.93034 7.831,-2.67773 10.9382,-2.67773 h 76.4414 c 8.0837,-0.25261 8.892,-2.77876 8.892,-6.82061 V 308.6836 c 0.05,-3.46083 -1.4399,-5.0523 -7.4269,-5.0523 m -293.8673,3.38504 a 3.2839984,3.2839984 0 0 0 -1.7178,-2.27353 7.401627,7.401627 0 0 0 -3.4861,-1.21256 h -47.6432 c -1.6167,0 -3.284,-0.1263 -4.6229,0.75785 a 4.8754745,4.8754745 0 0 0 -1.9451,2.47563 c -0.6821,1.7683 -0.5052,3.9408 -0.5052,5.22913 v 172.61201 c -0.1516,2.27353 -0.5053,3.10716 -1.1115,3.6124 a 2.0714451,2.0714451 0 0 1 -1.1368,0.50523 2.3745834,2.3745834 0 0 1 -1.7683,-0.35369 12.378147,12.378147 0 0 1 -2.6777,-2.52616 L 1022.5317,308.00154 c -0.5053,-0.1768 -1.4147,-1.94514 -3.4861,-3.03138 a 14.500116,14.500116 0 0 0 -7.149,-1.26308 h -40.34269 c -1.18729,0.20209 -2.45036,-0.0757 -3.91553,0.4547 a 7.6542424,7.6542424 0 0 0 -3.284,2.52615 c -1.46517,2.02091 -1.11151,4.24394 -1.36412,7.27532 v 270.0457 c 0,1.69252 -0.32843,3.99132 1.06098,5.55754 1.21256,1.36412 3.78923,2.14723 3.78923,2.14723 h 45.97603 c 2.1724,0 5.5575,0.35369 7.4016,-1.59148 a 11.241378,11.241378 0 0 0 2.0714,-5.10283 V 405.40998 c 0,-1.01046 0,-3.78922 0.5053,-5.20387 0.3031,-0.85889 0.8083,-1.26308 1.3136,-1.43991 0.5052,-0.1768 1.1367,-0.10107 1.9198,0.65677 1.2631,1.13677 3.0819,3.78923 2.9809,3.9408 l 133.6335,183.90391 c 0.7578,1.01046 2.324,3.18295 3.865,3.78923 1.4146,0.50523 2.6272,0.55576 2.6777,0.55576 h 43.955 a 8.6899648,8.6899648 0 0 0 2.7788,-0.60631 c 0.8589,-0.35369 1.4399,-0.42942 2.2735,-1.76829 a 9.7256874,9.7256874 0 0 0 1.0105,-4.16811 V 310.57822 a 20.461836,20.461836 0 0 0 -0.3789,-3.48609 M 287.24446,481.44718 a 50.422004,50.422004 0 0 0 -3.73868,-9.6499 72.500578,72.500578 0 0 0 -5.55753,-8.58892 61.638122,61.638122 0 0 0 -5.55762,-6.97218 69.292364,69.292364 0 0 0 -8.13421,-7.2248 116.35459,116.35459 0 0 0 -20.46181,-12.37815 157.12669,157.12669 0 0 0 -10.60978,-4.49655 126.05501,126.05501 0 0 0 -13.28768,-4.21868 272.57186,272.57186 0 0 0 -17.93556,-3.91553 1079.1724,1079.1724 0 0 0 -20.10831,-3.58714 1257.1398,1257.1398 0 0 0 -21.0175,-3.48609 c -6.9974,-1.13677 -13.8938,-2.07144 -19.704,-3.10716 -5.8607,-1.01047 -10.7109,-2.02093 -15.46,-3.08191 a 190.8003,190.8003 0 0 1 -13.3129,-3.10717 52.291359,52.291359 0 0 1 -17.304199,-8.63944 13.843316,13.843316 0 0 1 -3.3597,-3.43557 26.676171,26.676171 0 0 1 -3.9661,-10.66036 32.890507,32.890507 0 0 1 1.2631,-14.34855 19.628206,19.628206 0 0 1 2.5767,-5.50701 c 1.162,-1.69252 2.6525,-3.33452 4.4208,-4.97653 1.7683,-1.61673 3.7892,-3.20821 5.860699,-4.62285 a 61.890737,61.890737 0 0 1 6.9973,-4.04185 75.531961,75.531961 0 0 1 21.7249,-7.32584 c 4.345,-0.75784 9.17,-1.38939 13.4645,-1.69252 a 90.941494,90.941494 0 0 1 12.5045,-0.0757 c 4.547,0.30316 9.9025,0.83363 14.399,1.56622 4.4714,0.75784 8.0837,1.71778 11.9993,3.03138 3.91548,1.3136 8.13416,3.03138 11.87289,4.54707 3.78919,1.61674 6.9975,3.10717 10.53409,5.22914 a 85.964972,85.964972 0 0 1 17.85973,14.39907 c 2.02103,2.14723 3.68826,3.99132 4.85031,5.17861 a 11.620302,11.620302 0 0 0 2.42515,2.02092 5.0523052,5.0523052 0 0 0 2.19765,0.65677 7.3258424,7.3258424 0 0 0 3.53674,-0.75785 l 39.23105,-27.53504 a 6.3659044,6.3659044 0 0 0 1.76829,-2.07146 c 0.42967,-0.83363 0.60664,-1.59148 0,-2.82929 -2.02092,-3.89028 -11.92344,-12.47918 -20.89122,-18.87036 a 155.40891,155.40891 0 0 0 -23.99852,-14.09593 123.22572,123.22572 0 0 0 -18.59242,-7.57846 198.63138,198.63138 0 0 0 -28.1666,-6.51746 156.36884,156.36884 0 0 0 -27.10564,-2.02094 326.88415,326.88415 0 0 0 -30.9706,2.27354 c -8.6648,1.01046 -16.1674,2.02092 -24.2511,3.9408 a 159.67811,159.67811 0 0 0 -27.610799,9.34676 c -9.7005,4.24394 -19.2746,9.59938 -26.7772,16.04107 a 81.089497,81.089497 0 0 0 -15.2075,17.75885 93.972874,93.972874 0 0 0 -7.0732,12.98443 47.744284,47.744284 0 0 0 -3.3597,10.10461 c -0.8338,3.96606 -1.2633,8.6647 -1.6926,11.87292 -0.3029,2.4251 -0.5812,4.04184 -0.5812,6.74482 0,4.54708 0.7072,12.04975 1.9704,17.78412 1.1369,5.00178 2.703,8.58892 5.0523,12.70654 2.9304,5.00179 7.0228,10.78668 12.4541,16.06633 6.1133,5.96172 13.9442,11.26665 21.1185,14.90431 6.3659,3.28399 12.2265,5.30492 19.1483,7.37636 8.2857,2.47563 18.1377,5.05231 28.469699,7.07323 10.9888,2.02092 22.5333,3.41031 32.9663,4.74917 9.2205,1.21255 17.5568,2.39984 25.6405,3.66292 7.2753,1.18729 14.399,2.32406 20.58811,3.96605 5.2292,1.36413 9.852,3.03139 13.81809,4.79969 3.38507,1.5157 6.2648,3.03139 9.29621,5.35545 3.48613,2.6272 7.17425,6.31538 9.34682,10.40775 1.94505,3.78923 2.52607,7.93212 2.77866,11.87292 0.25274,3.58713 0.10122,7.0227 -0.58102,10.35722 a 25.514141,25.514141 0 0 1 -4.4965,10.45827 47.693761,47.693761 0 0 1 -13.23707,11.87292 c -5.0523,3.0819 -10.2815,4.95126 -16.34432,6.46695 -6.56798,1.66726 -14.14638,2.9556 -20.31028,3.66292 -5.3049,0.60631 -9.5488,0.75784 -14.9547,0.58104 -6.3154,-0.25261 -14.0707,-1.08626 -20.0325,-1.7178 a 122.61944,122.61944 0 0 1 -13.237,-2.02092 137.47322,137.47322 0 0 1 -18.845,-5.30491 c -4.370299,-1.64201 -7.477499,-3.33452 -10.988899,-5.0523 -4.1428,-2.07145 -8.7656,-4.24394 -14.1463,-8.48787 -6.0629,-4.79971 -13.0604,-12.37817 -15.4095,-14.55066 a 3.5366136,3.5366136 0 0 0 -1.3137,-1.01046 6.5174737,6.5174737 0 0 0 -1.6925,-0.35368 13.818055,13.818055 0 0 0 -2.3999,0 l -44.814,29.63177 a 4.041844,4.041844 0 0 0 -0.7581,2.82929 c 0.1262,0.80837 0.4042,1.43991 1.9705,3.284 1.5157,1.81883 4.4208,4.79969 6.9721,7.45215 2.5262,2.60194 4.8503,4.79969 8.0837,7.45215 3.284,2.65246 7.4774,5.75963 12.5803,8.84152 5.0523,3.0314 11.0139,6.11329 17.5315,8.89206 a 227.35373,227.35373 0 0 0 43.853999,13.5907 c 7.7047,1.43992 15.4854,2.22301 23.3163,2.82931 7.8311,0.58104 15.7633,0.95992 22.988,0.90941 a 267.21642,267.21642 0 0 0 44.76354,-5.02704 206.13405,206.13405 0 0 0 22.60897,-5.86068 c 7.1744,-2.32406 13.94439,-4.95127 20.15873,-7.90687 6.21434,-3.03137 11.87304,-6.36589 16.29371,-9.16992 4.42081,-2.82929 7.57837,-5.12809 10.98881,-8.23527 a 127.41913,127.41913 0 0 0 17.43039,-20.38604 63.153813,63.153813 0 0 0 5.25438,-10.43301 66.437812,66.437812 0 0 0 4.69868,-21.29548 85.636574,85.636574 0 0 0 -0.32842,-19.37559 71.641686,71.641686 0 0 0 -1.97038,-9.92778 M 599.37545,305.37439 a 4.1934133,4.1934133 0 0 0 -2.65246,-1.51569 h -51.91242 a 10.811933,10.811933 0 0 0 -1.94514,0.65677 4.1681518,4.1681518 0 0 0 -1.41464,0.83363 5.5575357,5.5575357 0 0 0 -1.21257,2.02092 15.207438,15.207438 0 0 0 -0.65675,4.04184 v 176.65387 c 0,0.42941 -0.63159,6.16381 -1.08625,10.40774 -0.42943,4.14291 -0.65677,6.82062 -1.3894,10.10462 a 40.165826,40.165826 0 0 1 -4.44603,11.72134 44.308715,44.308715 0 0 1 -9.52358,10.71089 c -3.33452,2.82929 -6.64378,5.05231 -10.53405,7.32584 a 77.300268,77.300268 0 0 1 -15.40955,6.82061 c -5.88592,1.8441 -12.27709,2.77877 -17.93567,3.284 -5.10283,0.37896 -9.59938,0.4547 -14.5759,0.15154 a 99.02518,99.02518 0 0 1 -16.62208,-2.22301 64.846336,64.846336 0 0 1 -14.34855,-5.05231 55.272219,55.272219 0 0 1 -12.9339,-8.48787 46.38016,46.38016 0 0 1 -11.74661,-17.60728 c -1.66726,-4.49656 -3.66292,-11.1656 -3.66292,-15.15692 V 311.43711 c 0,-0.75785 -0.25262,-2.52616 -0.58104,-3.66292 a 4.9259974,4.9259974 0 0 0 -0.8589,-1.76831 4.5470747,4.5470747 0 0 0 -1.18729,-1.01046 3.7892289,3.7892289 0 0 0 -1.51569,-0.50523 h -51.93773 c -0.60583,0.15154 -1.08619,0.20208 -1.69251,0.4547 a 6.1638122,6.1638122 0 0 0 -1.64203,1.01046 5.3049203,5.3049203 0 0 0 -1.26308,2.37458 13.691747,13.691747 0 0 0 -0.5556,3.78923 V 504.6625 c 0,4.79969 0.35394,9.34676 1.18726,14.22225 0.85893,5.30491 2.27354,10.98875 4.04184,16.09158 1.59151,4.85021 3.53661,9.16993 6.31538,13.51493 3.03138,4.79969 7.19956,9.59938 11.74664,14.07065 a 105.84579,105.84579 0 0 0 33.04207,22.1291 c 6.06275,2.67774 12.30235,4.97652 18.94615,6.87114 7.07321,2.02092 14.65168,3.63766 22.12908,4.87547 7.27532,1.26308 14.50013,2.12197 21.21968,2.27354 6.39118,0.20208 12.32762,-0.2526 18.94614,-1.11151 7.2248,-0.85889 15.23272,-2.17249 21.87649,-3.43555 a 177.84114,177.84114 0 0 0 33.34521,-9.47309 c 6.97218,-2.77875 14.22224,-6.18907 20.66393,-10.35722 6.2396,-4.04183 11.72135,-8.84154 16.92522,-14.07067 5.05231,-5.10283 9.92778,-10.60983 13.51492,-15.81372 3.13243,-4.54706 5.30492,-8.79101 6.87113,-14.07067 1.76831,-5.81015 2.77877,-12.95916 3.46083,-18.94613 0.65677,-5.63332 1.01046,-10.28144 1.43991,-16.92522 0.42943,-6.31538 0.90941,-14.39907 0.90941,-15.08113 V 310.80557 c 0,-0.75784 -0.25261,-2.52615 -0.58104,-3.66292 a 4.5470747,4.5470747 0 0 0 -0.83363,-1.76831" />
</svg>
