<?xml version="1.0" encoding="UTF-8"?>
<svg id="Layer_1" data-name="Layer 1" xmlns="http://www.w3.org/2000/svg" viewBox="0 0 1080 356.17">
  <defs>
    <style>
      .cls-1 {
        fill: #0a0a0a;
      }
    </style>
  </defs>
  <path class="cls-1" d="M625.59,0h-169.19v60.99h33.97l-56.72,52.1,41.66,45.11,65.37-59.08,66.01,59.08,41.66-45.11-57.04-52.1h34.29V0Z"/>
  <g>
    <path d="M962,352.53l19.6-92.07c.29-1.36,1.49-2.34,2.88-2.34h30.33c1.18,0,2.25.7,2.71,1.79l19.6,45.82h.27l9.62-45.27c.29-1.36,1.49-2.34,2.89-2.34h30.11l-20.09,94.4h-32.05c-1.18,0-2.24-.7-2.71-1.78l-20.13-46.63h-.27l-9.75,46.08c-.29,1.36-1.49,2.34-2.89,2.34h-30.11Z"/>
    <path d="M844.2,352.53l46.25-92.77c.5-1,1.52-1.63,2.64-1.63h54.68l7.01,94.4h-35.19l-1.22-17.13h-27.69c-1.13,0-2.16.64-2.65,1.66l-6.75,13.82c-.49,1.01-1.52,1.66-2.65,1.66h-34.44ZM912.84,285.64c-.57,0-1.09.33-1.33.84l-12.28,25.86h19.01l-1.05-25.99c-.01-.4-.34-.71-.74-.71h-3.62Z"/>
    <path d="M718.73,352.53l19.6-92.07c.29-1.36,1.49-2.34,2.89-2.34h33.5c1.28,0,2.41.82,2.81,2.03l11.2,34.24,25.28-35.05c.55-.77,1.45-1.22,2.39-1.22h39.35l-19.46,92.06c-.29,1.36-1.49,2.34-2.89,2.34h-30.79l9.72-46.06c.16-.77-.83-1.22-1.3-.6l-31.07,40.32h-1.35l-15.42-40.79c-.26-.69-1.26-.61-1.41.11l-9.37,44.68c-.29,1.37-1.49,2.34-2.89,2.34h-30.78Z"/>
    <path d="M626.83,348.62c-8-5.3-12-12.95-12-22.93,0-4.14.54-8.77,1.62-13.89l10.83-51.33c.29-1.36,1.49-2.34,2.88-2.34h32.27l-11.6,54.89-.13,1.08-.14,1.21c-.09.54-.18,1.03-.27,1.48v1.08c0,5.57,3.86,8.36,11.6,8.36,8.45,0,13.62-4.27,15.51-12.81l11.24-52.96c.29-1.36,1.49-2.34,2.88-2.34h32.27l-12.54,58.8c-2.97,13.58-8.63,23.56-16.99,29.94-8.18,6.2-19.78,9.31-34.79,9.31-14.02,0-24.9-2.52-32.63-7.55Z"/>
    <path d="M557.94,352.53l7.15-33.71h-25.93c-1.39,0-2.6.97-2.89,2.34l-6.65,31.38h-34.66l20.1-94.4h34.66l-7.01,32.64h28.32l7.01-32.64h34.66l-19.6,92.07c-.29,1.36-1.49,2.34-2.88,2.34h-32.27Z"/>
    <path d="M377.16,352.53l46.25-92.77c.5-1,1.52-1.63,2.64-1.63h54.68l7.01,94.4h-35.2l-1.21-17.13h-29.53l-7.55,15.47c-.49,1.01-1.52,1.66-2.65,1.66h-34.44ZM445.8,285.64c-.57,0-1.09.33-1.33.84l-12.28,25.86h19.01l-1.02-25.29c-.03-.79-.68-1.42-1.47-1.42h-2.91Z"/>
    <path d="M376.77,352.53h-35.1c-1.06,0-2.04-.57-2.57-1.5l-10.98-19.39c-.52-.92-1.5-1.5-2.57-1.5h-6.81c-1.39,0-2.6.98-2.89,2.34l-3.73,17.7c-.29,1.36-1.49,2.34-2.89,2.34h-32.27l19.6-92.07c.29-1.36,1.49-2.34,2.88-2.34h44.68c26.97,0,40.46,10.61,40.46,31.83,0,18.61-8.18,30.57-24.55,35.87l16.72,26.7ZM338.07,305.19c3.96,0,7.06-1.21,9.31-3.64,2.16-2.16,3.24-4.99,3.24-8.5,0-6.02-3.6-9.04-10.79-9.04h-11.36c-1.39,0-2.6.98-2.89,2.34l-3.96,18.83h16.45Z"/>
    <path d="M281.24,286.45h-27.55c-1.39,0-2.6.97-2.88,2.34l-13.03,61.41c-.29,1.36-1.49,2.34-2.88,2.34h-32.27l14.03-66.08h-31.29l7.99-26.23c.38-1.24,1.52-2.09,2.82-2.09h87.77l-2.7,28.32Z"/>
    <path d="M103.91,352.53l19.6-92.07c.29-1.36,1.49-2.34,2.88-2.34h31.23c.47,0,.82.43.72.89l-13.84,64.92h43.96l-8.26,26.52c-.38,1.23-1.52,2.07-2.82,2.07h-73.48Z"/>
    <path d="M12,348.62c-8-5.3-12-12.95-12-22.93,0-4.14.54-8.77,1.62-13.89l10.83-51.33c.29-1.36,1.49-2.34,2.89-2.34h32.27l-11.6,54.89-.13,1.08-.13,1.21c-.09.54-.18,1.03-.27,1.48v1.08c0,5.57,3.87,8.36,11.6,8.36,8.45,0,13.62-4.27,15.51-12.81l11.73-55.29h34.66l-12.54,58.8c-2.97,13.58-8.63,23.56-16.99,29.94-8.18,6.2-19.78,9.31-34.79,9.31-14.03,0-24.9-2.52-32.64-7.55Z"/>
  </g>
</svg>
